<svg id="Chip_-_Combined" data-name="Chip - Combined" xmlns="http://www.w3.org/2000/svg" viewBox="0 0 1015.93 1015.93"><path d="M1008,342.27A509.54,509.54,0,1,0,1048,540,506.47,506.47,0,0,0,1008,342.27ZM792.87,792.87A357.59,357.59,0,1,1,897.62,540,355.25,355.25,0,0,1,792.87,792.87Zm-435-684.07A470.14,470.14,0,0,1,683.79,94.52L654.51,185.3A374.22,374.22,0,0,0,395,196.67c-4.79,2-9.51,4.16-14.18,6.37L340,116.82Q348.81,112.64,357.85,108.8ZM72,540a466.35,466.35,0,0,1,89-274.63l77.21,56A371.15,371.15,0,0,0,167.38,540a378.29,378.29,0,0,0,2.94,47.13L75.71,599.07A472.79,472.79,0,0,1,72,540ZM357.85,971.2A471,471,0,0,1,161.66,815.53l77.07-56.2A374.34,374.34,0,0,0,395,883.33a369.48,369.48,0,0,0,75.47,22.83l-17.7,93.72A463.78,463.78,0,0,1,357.85,971.2ZM870.9,870.9A466.33,466.33,0,0,1,722.15,971.2q-18.42,7.78-37.3,13.93l-29.5-90.71q15-4.89,29.69-11.09A374.06,374.06,0,0,0,866.62,719.48l83.56,46A467.09,467.09,0,0,1,870.9,870.9Zm41.71-331.76A371.29,371.29,0,0,0,811.1,284.38L880.47,219A466.25,466.25,0,0,1,1008,538.8Z" transform="translate(-32.03 -32.03)"/></svg>